<svg width="580" height="400" xmlns="http://www.w3.org/2000/svg">
 <!-- Created with Method Draw - http://github.com/duopixel/Method-Draw/ -->
 <g>
  <title>background</title>
  <rect fill="#ffffff" id="canvas_background" height="402" width="582" y="-1" x="-1"/>
  <g display="none" overflow="visible" y="0" x="0" height="100%" width="100%" id="canvasGrid">
   <rect fill="url(#gridpattern)" stroke-width="0" y="0" x="0" height="100%" width="100%"/>
  </g>
 </g>
 <g>
  <title>Layer 1</title>
  <path id="svg_8" d="m284.5,71.0375c193,1 220,29 219.5,28.9625c0.5,0.0375 0.5,49.0375 0,49" stroke-opacity="null" stroke-width="1.5" fill="#FFA9A2"/>
  <path id="svg_9" d="m504.5,149.0375" opacity="0.5" stroke-opacity="null" stroke-width="1.5" fill="#FFA9A2"/>
  <path id="svg_11" d="m285.5,71.0375c-205,2 -213,23 -213.5,22.9625c0.5,0.0375 0.5,51.0375 0,51" stroke-opacity="null" stroke-width="1.5" fill="#FFA9A2"/>
  <path id="svg_14" d="m504.5,150.0375" opacity="0.5" stroke-opacity="null" stroke-width="1.5" fill="#FFA9A2"/>
  <path id="svg_16" d="m278.499987,160.031613c226.008272,2.060181 226.008272,-12.361085 225.475234,-12.399714c0.533038,0.038628 0.533038,-21.593271 0,-21.6319" stroke-opacity="null" stroke-width="1.5" fill="#FFA9A2"/>
  <path id="svg_17" d="m504.5,126.0375" opacity="0.5" stroke-opacity="null" stroke-width="1.5" fill="#FFA9A2"/>
  <path id="svg_19" d="m71.5,135.0375" opacity="0.5" stroke-opacity="null" stroke-width="1.5" fill="#FFA9A2"/>
  <path id="svg_20" d="m292.5,160.0375c-221,1 -220,-14 -220.5,-14.0375c0.5,0.0375 0.5,-12.9625 0.5,-12.9625" stroke-opacity="null" stroke-width="1.5" fill="#FFA9A2"/>
  <ellipse ry="34" rx="188" id="svg_21" cy="123.0375" cx="288.5" stroke-opacity="null" stroke-width="1.5" fill="#FFA9A2"/>
  <ellipse id="svg_22" cy="290.0375" cx="680.5" stroke-opacity="null" stroke-width="1.5" fill="#FFFF91"/>
  <ellipse ry="11" rx="60.5" id="svg_27" cy="84.0375" cx="280" stroke-opacity="null" stroke-width="1.5" fill="#FFA9A2"/>
  <ellipse ry="9.5" rx="16" id="svg_28" cy="135.5375" cx="112.5" stroke-opacity="null" stroke-width="1.5" fill="#FFA9A2"/>
  <ellipse id="svg_29" cy="281.0375" cx="176.5" stroke-opacity="null" stroke-width="1.5" fill="#FFFF91"/>
  <ellipse ry="5" rx="13.5" id="svg_30" cy="154.0375" cx="280" stroke-opacity="null" stroke-width="1.5" fill="#FFA9A2"/>
  <ellipse id="svg_31" cy="288.0375" cx="334.5" stroke-opacity="null" stroke-width="1.5" fill="#FFFF91"/>
  <ellipse transform="rotate(-20 119.00000000000001,113.53749847412108) " ry="9.645616" rx="25.646483" id="svg_32" cy="113.537503" cx="119.000001" stroke-width="1.5" fill="#CE7975"/>
  <ellipse ry="6" rx="12.5" id="svg_33" cy="102.0375" cx="217" stroke-width="1.5" fill="#CE7975"/>
  <ellipse ry="6" rx="12.5" id="svg_34" cy="97.0375" cx="378" stroke-width="1.5" fill="#CE7975"/>
  <ellipse transform="rotate(-15 228.5000000000002,140.0375061035156) " ry="8" rx="16" id="svg_35" cy="140.0375" cx="228.5" stroke-width="1.5" fill="#CE7975"/>
  <ellipse transform="rotate(-163.30075073242188 212.5,191.0375061035156) " id="svg_36" cy="191.0375" cx="212.5" stroke-width="1.5" fill="#E6C36A"/>
  <ellipse transform="rotate(-24 299.49999999999994,104.03749847412101) " ry="8" rx="16" id="svg_37" cy="104.0375" cx="299.5" stroke-width="1.5" fill="#CE7975"/>
  <ellipse transform="rotate(16 464.00000000000017,128.53750610351565) " ry="9.645616" rx="25.646483" id="svg_38" cy="128.537503" cx="464.000001" stroke-width="1.5" fill="#CE7975"/>
  <ellipse transform="rotate(23 345.0000000000001,141.0375061035155) " ry="6" rx="12.5" id="svg_39" cy="141.0375" cx="345" stroke-width="1.5" fill="#CE7975"/>
  <ellipse id="svg_40" cy="226.8375" cx="56.5" fill-opacity="null" stroke-opacity="null" stroke-width="1.5" stroke="null" fill="#E6C36A"/>
  <ellipse id="svg_41" cy="87.8375" cx="72.5" stroke-opacity="null" stroke-width="1.5" stroke="null" fill="#FFA9A2"/>
  <ellipse id="svg_42" cy="87.8375" cx="72.5" stroke-opacity="null" stroke-width="1.5" stroke="null" fill="#FFA9A2"/>
  <ellipse id="svg_43" cy="327.8375" cx="225.5" fill-opacity="null" stroke-opacity="null" stroke-width="1.5" stroke="null" fill="#E6C36A"/>
  <ellipse id="svg_44" cy="285.8375" cx="358.5" fill-opacity="null" stroke-opacity="null" stroke-width="1.5" stroke="null" fill="#E6C36A"/>
  <ellipse ry="5.5" rx="17" id="svg_45" cy="77.3375" cx="284.5" stroke-opacity="null" stroke-width="1.5" stroke="null" fill="#FFA9A2"/>
  <ellipse stroke="null" id="svg_46" cy="42.8375" cx="308.5" stroke-opacity="null" stroke-width="1.5" fill="#845335"/>
  <ellipse ry="5.5" rx="17" id="svg_47" cy="91.3375" cx="231.5" stroke-opacity="null" stroke-width="1.5" stroke="null" fill="#FFA9A2"/>
  <ellipse ry="5.5" rx="17" id="svg_48" cy="87.3375" cx="330.5" stroke-opacity="null" stroke-width="1.5" stroke="null" fill="#FFA9A2"/>
  <ellipse ry="5.5" rx="17" id="svg_49" cy="152.3375" cx="288.5" stroke-opacity="null" stroke-width="1.5" stroke="null" fill="#FFA9A2"/>
  <ellipse ry="5.5" rx="17" id="svg_50" cy="152.3375" cx="268.5" stroke-opacity="null" stroke-width="1.5" stroke="null" fill="#FFA9A2"/>
  <ellipse ry="5.5" rx="17" id="svg_51" cy="153.3375" cx="291.5" stroke-opacity="null" stroke-width="1.5" stroke="null" fill="#FFA9A2"/>
  <ellipse ry="5.5" rx="17" id="svg_52" cy="153.3375" cx="285.5" stroke-opacity="null" stroke-width="1.5" stroke="null" fill="#FFA9A2"/>
 </g>
</svg>