<?xml version="1.0" encoding="utf-8"?>
<!-- Generator: Adobe Illustrator 22.0.1, SVG Export Plug-In . SVG Version: 6.00 Build 0)  -->
<svg version="1.1" xmlns="http://www.w3.org/2000/svg" xmlns:xlink="http://www.w3.org/1999/xlink" x="0px" y="0px"
	 viewBox="0 0 2048 400" style="enable-background:new 0 0 2048 400;" xml:space="preserve">
<style type="text/css">
	.st0{display:none;}
	.st1{display:inline;fill:#E2CD05;}
	.st2{display:inline;fill:#051828;}
	.st3{fill:#FFF650;}
	.st4{fill:#E2CD05;}
	.st5{display:inline;}
	.st6{fill:#EFC75E;}
	.st7{fill:#FCF5E4;}
	.st8{display:inline;fill:#F9E978;}
	.st9{display:inline;fill:#FFFBB3;}
	.st10{fill:#F9ED95;}
	.st11{fill:#FCFCFC;}
	.st12{display:inline;fill:#FCF5A2;}
	.st13{display:inline;fill:#F9F3C0;}
	.st14{fill:#CC6D17;}
	.st15{display:inline;fill:#E58F48;}
	.st16{display:inline;fill:#F085F9;}
	.st17{display:inline;fill:#F7A9F5;}
	.st18{fill:#ED77E7;}
	.st19{display:inline;fill:#CE172D;}
	.st20{display:inline;fill:#CE3E3E;}
	.st21{fill:#B72C2C;}
	.st22{display:inline;fill:#3D1A09;}
	.st23{display:inline;fill:#4C2311;}
	.st24{fill:#230E05;}
</style>
<g id="Lemon_Layer">
	<g class="st0">
		<path class="st1" d="M28,384.5c-6.3,0-11.5-5.2-11.5-11.5V28c0-6.3,5.2-11.5,11.5-11.5h1986c6.3,0,11.5,5.2,11.5,11.5v345
			c0,6.3-5.2,11.5-11.5,11.5H28z"/>
		<path class="st2" d="M2014,17c6.1,0,11,4.9,11,11v345c0,6.1-4.9,11-11,11H28c-6.1,0-11-4.9-11-11V28c0-6.1,4.9-11,11-11H2014
			 M2014,16H28c-6.6,0-12,5.4-12,12v345c0,6.6,5.4,12,12,12h1986c6.6,0,12-5.4,12-12V28C2026,21.4,2020.6,16,2014,16L2014,16z"/>
	</g>
	<path class="st3" d="M1990,370H48c-6.6,0-12-5.4-12-12V48c0-6.6,5.4-12,12-12h1942c6.6,0,12,5.4,12,12v310
		C2002,364.6,1996.6,370,1990,370z"/>
	<g id="Layer_2">
		<g>
			<ellipse class="st4" cx="142" cy="74" rx="22" ry="13"/>
		</g>
		<g>
			<ellipse class="st4" cx="284" cy="153" rx="22" ry="13"/>
		</g>
		<g>
			<ellipse class="st4" cx="555" cy="117" rx="40" ry="23"/>
		</g>
		<g>
			<ellipse class="st4" cx="771" cy="203" rx="40" ry="23"/>
		</g>
		<g>
			<ellipse class="st4" cx="1283" cy="193" rx="22" ry="13"/>
		</g>
		<g>
			<ellipse class="st4" cx="1425" cy="272" rx="22" ry="13"/>
		</g>
		<g>
			<ellipse class="st4" cx="1696" cy="236" rx="40" ry="23"/>
		</g>
		<g>
			<ellipse class="st4" cx="1912" cy="322" rx="40" ry="23"/>
		</g>
		<g>
			<ellipse class="st4" cx="883" cy="61" rx="22" ry="13"/>
		</g>
		<g>
			<ellipse class="st4" cx="1025" cy="140" rx="22" ry="13"/>
		</g>
		<g>
			<ellipse class="st4" cx="1296" cy="104" rx="40" ry="23"/>
		</g>
		<g>
			<ellipse class="st4" cx="1512" cy="190" rx="40" ry="23"/>
		</g>
		<g>
			
				<ellipse transform="matrix(0.91 -0.4147 0.4147 0.91 139.7182 788.4694)" class="st4" cx="1885.5" cy="72.5" rx="26.5" ry="14.5"/>
		</g>
		<g>
			
				<ellipse transform="matrix(0.91 -0.4147 0.4147 0.91 81.2733 681.3026)" class="st4" cx="1609.5" cy="153.5" rx="26.5" ry="14.5"/>
		</g>
		<g>
			
				<ellipse transform="matrix(0.91 -0.4147 0.4147 0.91 -4.2925 443.231)" class="st4" cx="1018.5" cy="231.5" rx="26.5" ry="14.5"/>
		</g>
		<g>
			<ellipse transform="matrix(0.91 -0.4147 0.4147 0.91 26.3738 308.4642)" class="st4" cx="723.5" cy="93.5" rx="26.5" ry="14.5"/>
		</g>
		<g>
			
				<ellipse transform="matrix(0.91 -0.4147 0.4147 0.91 -90.4812 172.2906)" class="st4" cx="351.5" cy="294.5" rx="26.5" ry="14.5"/>
		</g>
		<g>
			
				<ellipse transform="matrix(0.91 -0.4147 0.4147 0.91 -79.2617 79.9616)" class="st4" cx="144.5" cy="222.5" rx="26.5" ry="14.5"/>
		</g>
		<g>
			<ellipse class="st4" cx="447" cy="203" rx="22" ry="13"/>
		</g>
		<g>
			<ellipse class="st4" cx="589" cy="282" rx="22" ry="13"/>
		</g>
		<g>
			<ellipse class="st4" cx="860" cy="246" rx="40" ry="23"/>
		</g>
		<g>
			<ellipse class="st4" cx="1076" cy="332" rx="40" ry="23"/>
		</g>
	</g>
	<g id="Layer_11" class="st0">
		<g class="st5">
			<path class="st6" d="M166.5,61C112.1,61,68,105.1,68,159.5c0,54.4,44.1,98.5,98.5,98.5c54.4,0,98.5-44.1,98.5-98.5
				C265,105.1,220.9,61,166.5,61z"/>
			<path class="st7" d="M166.5,73.3c-47.6,0-86.2,38.6-86.2,86.2c0,47.6,38.6,86.2,86.2,86.2c47.6,0,86.2-38.6,86.2-86.2
				C252.7,111.9,214.1,73.3,166.5,73.3z M240.1,153.3h-61.3l42.6-43.2C231.8,121.8,238.7,136.8,240.1,153.3z M172.6,85.8
				c16.1,0.7,27.8,6.5,39.7,15.9l-39.7,42.8V85.8z M153.8,153.3H92.9c1.2-15,7-28.7,15.8-39.8L153.8,153.3z M117.3,104.5
				c10.9-9.8,27.8-16.4,43.1-18.3v58.2C160.4,144.5,117.3,104.5,117.3,104.5z M153.6,165.5l-45,39.8c-8.8-11.1-14.5-24.8-15.7-39.8
				H153.6z M160.2,174.2v58.5c-15.3-1.9-32.1-8.6-43-18.4L160.2,174.2z M172.4,174.3l40.1,43c-11.9,9.5-23.9,15.3-40.1,16V174.3z
				 M221.5,208.7l-42.6-43.2h61.2C238.7,182.1,231.9,197,221.5,208.7z"/>
		</g>
		<g class="st5">
			<path class="st6" d="M557.5,154c-54.4,0-98.5,44.1-98.5,98.5c0,54.4,44.1,98.5,98.5,98.5c54.4,0,98.5-44.1,98.5-98.5
				C656,198.1,611.9,154,557.5,154z"/>
			<path class="st7" d="M557.5,166.3c-47.6,0-86.2,38.6-86.2,86.2c0,47.6,38.6,86.2,86.2,86.2c47.6,0,86.2-38.6,86.2-86.2
				C643.7,204.9,605.1,166.3,557.5,166.3z M631.1,246.3h-61.3l42.6-43.2C622.8,214.8,629.7,229.8,631.1,246.3z M563.6,178.8
				c16.1,0.7,27.8,6.5,39.7,15.9l-39.7,42.8V178.8z M544.8,246.3h-60.9c1.2-15,7-28.7,15.8-39.8L544.8,246.3z M508.3,197.5
				c10.9-9.8,27.8-16.4,43.1-18.3v58.2C551.4,237.5,508.3,197.5,508.3,197.5z M544.6,258.5l-45,39.8c-8.8-11.1-14.5-24.8-15.7-39.8
				H544.6z M551.2,267.2v58.5c-15.3-1.9-32.1-8.6-43-18.4L551.2,267.2z M563.4,267.3l40.1,43c-11.9,9.5-23.9,15.3-40.1,16V267.3z
				 M612.5,301.7l-42.6-43.2h61.2C629.7,275.1,622.9,290,612.5,301.7z"/>
		</g>
		<g class="st5">
			<path class="st6" d="M892.5,63c-54.4,0-98.5,44.1-98.5,98.5c0,54.4,44.1,98.5,98.5,98.5c54.4,0,98.5-44.1,98.5-98.5
				C991,107.1,946.9,63,892.5,63z"/>
			<path class="st7" d="M892.5,75.3c-47.6,0-86.2,38.6-86.2,86.2c0,47.6,38.6,86.2,86.2,86.2c47.6,0,86.2-38.6,86.2-86.2
				C978.7,113.9,940.1,75.3,892.5,75.3z M966.1,155.3h-61.3l42.6-43.2C957.8,123.8,964.7,138.8,966.1,155.3z M898.6,87.8
				c16.1,0.7,27.8,6.5,39.7,15.9l-39.7,42.8V87.8z M879.8,155.3h-60.9c1.2-15,7-28.7,15.8-39.8L879.8,155.3z M843.3,106.5
				c10.9-9.8,27.8-16.4,43.1-18.3v58.2C886.4,146.5,843.3,106.5,843.3,106.5z M879.6,167.5l-45,39.8c-8.8-11.1-14.5-24.8-15.7-39.8
				H879.6z M886.2,176.2v58.5c-15.3-1.9-32.1-8.6-43-18.4L886.2,176.2z M898.4,176.3l40.1,43c-11.9,9.5-23.9,15.3-40.1,16V176.3z
				 M947.5,210.7l-42.6-43.2h61.2C964.7,184.1,957.9,199,947.5,210.7z"/>
		</g>
		<g class="st5">
			<path class="st6" d="M1230.5,160c-54.4,0-98.5,44.1-98.5,98.5c0,54.4,44.1,98.5,98.5,98.5c54.4,0,98.5-44.1,98.5-98.5
				C1329,204.1,1284.9,160,1230.5,160z"/>
			<path class="st7" d="M1230.5,172.3c-47.6,0-86.2,38.6-86.2,86.2c0,47.6,38.6,86.2,86.2,86.2c47.6,0,86.2-38.6,86.2-86.2
				C1316.7,210.9,1278.1,172.3,1230.5,172.3z M1304.1,252.3h-61.3l42.6-43.2C1295.8,220.8,1302.7,235.8,1304.1,252.3z M1236.6,184.8
				c16.1,0.7,27.8,6.5,39.7,15.9l-39.7,42.8V184.8z M1217.8,252.3h-60.9c1.2-15,7-28.7,15.8-39.8L1217.8,252.3z M1181.3,203.5
				c10.9-9.8,27.8-16.4,43.1-18.3v58.2C1224.4,243.5,1181.3,203.5,1181.3,203.5z M1217.6,264.5l-45,39.8
				c-8.8-11.1-14.5-24.8-15.7-39.8H1217.6z M1224.2,273.2v58.5c-15.3-1.9-32.1-8.6-43-18.4L1224.2,273.2z M1236.4,273.3l40.1,43
				c-11.9,9.5-23.9,15.3-40.1,16V273.3z M1285.5,307.7l-42.6-43.2h61.2C1302.7,281.1,1295.9,296,1285.5,307.7z"/>
		</g>
		<g class="st5">
			<path class="st6" d="M1575.5,63c-54.4,0-98.5,44.1-98.5,98.5c0,54.4,44.1,98.5,98.5,98.5c54.4,0,98.5-44.1,98.5-98.5
				C1674,107.1,1629.9,63,1575.5,63z"/>
			<path class="st7" d="M1575.5,75.3c-47.6,0-86.2,38.6-86.2,86.2c0,47.6,38.6,86.2,86.2,86.2c47.6,0,86.2-38.6,86.2-86.2
				C1661.7,113.9,1623.1,75.3,1575.5,75.3z M1649.1,155.3h-61.3l42.6-43.2C1640.8,123.8,1647.7,138.8,1649.1,155.3z M1581.6,87.8
				c16.1,0.7,27.8,6.5,39.7,15.9l-39.7,42.8V87.8z M1562.8,155.3h-60.9c1.2-15,7-28.7,15.8-39.8L1562.8,155.3z M1526.3,106.5
				c10.9-9.8,27.8-16.4,43.1-18.3v58.2C1569.4,146.5,1526.3,106.5,1526.3,106.5z M1562.6,167.5l-45,39.8
				c-8.8-11.1-14.5-24.8-15.7-39.8H1562.6z M1569.2,176.2v58.5c-15.3-1.9-32.1-8.6-43-18.4L1569.2,176.2z M1581.4,176.3l40.1,43
				c-11.9,9.5-23.9,15.3-40.1,16V176.3z M1630.5,210.7l-42.6-43.2h61.2C1647.7,184.1,1640.9,199,1630.5,210.7z"/>
		</g>
		<g class="st5">
			<path class="st6" d="M1877.5,135c-54.4,0-98.5,44.1-98.5,98.5c0,54.4,44.1,98.5,98.5,98.5c54.4,0,98.5-44.1,98.5-98.5
				C1976,179.1,1931.9,135,1877.5,135z"/>
			<path class="st7" d="M1877.5,147.3c-47.6,0-86.2,38.6-86.2,86.2c0,47.6,38.6,86.2,86.2,86.2c47.6,0,86.2-38.6,86.2-86.2
				C1963.7,185.9,1925.1,147.3,1877.5,147.3z M1951.1,227.3h-61.3l42.6-43.2C1942.8,195.8,1949.7,210.8,1951.1,227.3z M1883.6,159.8
				c16.1,0.7,27.8,6.5,39.7,15.9l-39.7,42.8V159.8z M1864.8,227.3h-60.9c1.2-15,7-28.7,15.8-39.8L1864.8,227.3z M1828.3,178.5
				c10.9-9.8,27.8-16.4,43.1-18.3v58.2C1871.4,218.5,1828.3,178.5,1828.3,178.5z M1864.6,239.5l-45,39.8
				c-8.8-11.1-14.5-24.8-15.7-39.8H1864.6z M1871.2,248.2v58.5c-15.3-1.9-32.1-8.6-43-18.4L1871.2,248.2z M1883.4,248.3l40.1,43
				c-11.9,9.5-23.9,15.3-40.1,16V248.3z M1932.5,282.7l-42.6-43.2h61.2C1949.7,256.1,1942.9,271,1932.5,282.7z"/>
		</g>
	</g>
</g>
<g id="Coconut_Layer" class="st0">
	<g>
		<path class="st8" d="M28,384.5c-6.3,0-11.5-5.2-11.5-11.5V28c0-6.3,5.2-11.5,11.5-11.5h1986c6.3,0,11.5,5.2,11.5,11.5v345
			c0,6.3-5.2,11.5-11.5,11.5H28z"/>
		<path class="st2" d="M2014,17c6.1,0,11,4.9,11,11v345c0,6.1-4.9,11-11,11H28c-6.1,0-11-4.9-11-11V28c0-6.1,4.9-11,11-11H2014
			 M2014,16H28c-6.6,0-12,5.4-12,12v345c0,6.6,5.4,12,12,12h1986c6.6,0,12-5.4,12-12V28C2026,21.4,2020.6,16,2014,16L2014,16z"/>
	</g>
	<path class="st9" d="M1990,370H48c-6.6,0-12-5.4-12-12V48c0-6.6,5.4-12,12-12h1942c6.6,0,12,5.4,12,12v310
		C2002,364.6,1996.6,370,1990,370z"/>
	<g id="Layer_2_copy_5" class="st5">
		<ellipse class="st10" cx="142" cy="74" rx="22" ry="13"/>
		<ellipse class="st10" cx="284" cy="153" rx="22" ry="13"/>
		<ellipse class="st10" cx="555" cy="117" rx="40" ry="23"/>
		<ellipse class="st10" cx="771" cy="203" rx="40" ry="23"/>
		<ellipse class="st10" cx="1283" cy="193" rx="22" ry="13"/>
		<ellipse class="st10" cx="1425" cy="272" rx="22" ry="13"/>
		<ellipse class="st10" cx="1696" cy="236" rx="40" ry="23"/>
		<ellipse class="st10" cx="1912" cy="322" rx="40" ry="23"/>
		<ellipse class="st10" cx="883" cy="61" rx="22" ry="13"/>
		<ellipse class="st10" cx="1025" cy="140" rx="22" ry="13"/>
		<ellipse class="st10" cx="1296" cy="104" rx="40" ry="23"/>
		<ellipse class="st10" cx="1512" cy="190" rx="40" ry="23"/>
		
			<ellipse transform="matrix(0.91 -0.4147 0.4147 0.91 139.7182 788.4694)" class="st10" cx="1885.5" cy="72.5" rx="26.5" ry="14.5"/>
		
			<ellipse transform="matrix(0.91 -0.4147 0.4147 0.91 81.2733 681.3026)" class="st10" cx="1609.5" cy="153.5" rx="26.5" ry="14.5"/>
		
			<ellipse transform="matrix(0.91 -0.4147 0.4147 0.91 -4.2925 443.231)" class="st10" cx="1018.5" cy="231.5" rx="26.5" ry="14.5"/>
		<ellipse transform="matrix(0.91 -0.4147 0.4147 0.91 26.3738 308.4642)" class="st10" cx="723.5" cy="93.5" rx="26.5" ry="14.5"/>
		
			<ellipse transform="matrix(0.91 -0.4147 0.4147 0.91 -90.4812 172.2906)" class="st10" cx="351.5" cy="294.5" rx="26.5" ry="14.5"/>
		
			<ellipse transform="matrix(0.91 -0.4147 0.4147 0.91 -79.2617 79.9616)" class="st10" cx="144.5" cy="222.5" rx="26.5" ry="14.5"/>
		<ellipse class="st10" cx="447" cy="203" rx="22" ry="13"/>
		<ellipse class="st10" cx="589" cy="282" rx="22" ry="13"/>
		<ellipse class="st10" cx="860" cy="246" rx="40" ry="23"/>
		<ellipse class="st10" cx="1076" cy="332" rx="40" ry="23"/>
	</g>
	<g id="Layer_14" class="st5">
		<path class="st11" d="M76,127c67,12.1,84,27.2,113,13.6c29-13.6,28-9.6-22-7.1S76,127,76,127z"/>
		<path class="st11" d="M1113.9,187.9c59.3,6,75.8,20.2,99.3,3.1c23.4-17.2,23-12.8-19.9-5.2
			C1150.4,193.4,1113.9,187.9,1113.9,187.9z"/>
		<path class="st11" d="M1815.9,226.6c55.1-24.8,79.3-18.8,87.2-48.8s10.6-25.4-20.7,5C1851,213.1,1815.9,226.6,1815.9,226.6z"/>
		<path class="st11" d="M966.9,83.1c104.2,7.8,130.6,14.4,175.9,10.6c45.3-3.8,43.7-2.3-34.2-3.7C1030.6,88.5,966.9,83.1,966.9,83.1
			z"/>
		<path class="st11" d="M1148,307c122.2,7.6,153.2,17.2,206.1,8.6c52.9-8.6,51.1-6.1-40.1-4.5C1222.8,312.7,1148,307,1148,307z"/>
		<path class="st11" d="M642,323c122.2,12.1,153.2,27.2,206.1,13.6c52.9-13.6,51.1-9.6-40.1-7.1C716.8,332.1,642,323,642,323z"/>
		<path class="st11" d="M1395,135.7c93.6-18.6,118.1-20.2,157.5-33c39.4-12.8,38.3-11.5-30.9,5.3S1395,135.7,1395,135.7z"/>
	</g>
</g>
<g id="Vanilla_Layer_1_" class="st0">
	<g>
		<path class="st12" d="M28,384.5c-6.3,0-11.5-5.2-11.5-11.5V28c0-6.3,5.2-11.5,11.5-11.5h1986c6.3,0,11.5,5.2,11.5,11.5v345
			c0,6.3-5.2,11.5-11.5,11.5H28z"/>
		<path class="st2" d="M2014,17c6.1,0,11,4.9,11,11v345c0,6.1-4.9,11-11,11H28c-6.1,0-11-4.9-11-11V28c0-6.1,4.9-11,11-11H2014
			 M2014,16H28c-6.6,0-12,5.4-12,12v345c0,6.6,5.4,12,12,12h1986c6.6,0,12-5.4,12-12V28C2026,21.4,2020.6,16,2014,16L2014,16z"/>
	</g>
	<path class="st13" d="M1990,370H48c-6.6,0-12-5.4-12-12V48c0-6.6,5.4-12,12-12h1942c6.6,0,12,5.4,12,12v310
		C2002,364.6,1996.6,370,1990,370z"/>
	<g id="Layer_2_copy_4" class="st5">
		<ellipse class="st10" cx="142" cy="74" rx="22" ry="13"/>
		<ellipse class="st10" cx="284" cy="153" rx="22" ry="13"/>
		<ellipse class="st10" cx="555" cy="117" rx="40" ry="23"/>
		<ellipse class="st10" cx="771" cy="203" rx="40" ry="23"/>
		<ellipse class="st10" cx="1283" cy="193" rx="22" ry="13"/>
		<ellipse class="st10" cx="1425" cy="272" rx="22" ry="13"/>
		<ellipse class="st10" cx="1696" cy="236" rx="40" ry="23"/>
		<ellipse class="st10" cx="1912" cy="322" rx="40" ry="23"/>
		<ellipse class="st10" cx="883" cy="61" rx="22" ry="13"/>
		<ellipse class="st10" cx="1025" cy="140" rx="22" ry="13"/>
		<ellipse class="st10" cx="1296" cy="104" rx="40" ry="23"/>
		<ellipse class="st10" cx="1512" cy="190" rx="40" ry="23"/>
		
			<ellipse transform="matrix(0.91 -0.4147 0.4147 0.91 139.7182 788.4694)" class="st10" cx="1885.5" cy="72.5" rx="26.5" ry="14.5"/>
		
			<ellipse transform="matrix(0.91 -0.4147 0.4147 0.91 81.2733 681.3026)" class="st10" cx="1609.5" cy="153.5" rx="26.5" ry="14.5"/>
		
			<ellipse transform="matrix(0.91 -0.4147 0.4147 0.91 -4.2925 443.231)" class="st10" cx="1018.5" cy="231.5" rx="26.5" ry="14.5"/>
		<ellipse transform="matrix(0.91 -0.4147 0.4147 0.91 26.3738 308.4642)" class="st10" cx="723.5" cy="93.5" rx="26.5" ry="14.5"/>
		
			<ellipse transform="matrix(0.91 -0.4147 0.4147 0.91 -90.4812 172.2906)" class="st10" cx="351.5" cy="294.5" rx="26.5" ry="14.5"/>
		
			<ellipse transform="matrix(0.91 -0.4147 0.4147 0.91 -79.2617 79.9616)" class="st10" cx="144.5" cy="222.5" rx="26.5" ry="14.5"/>
		<ellipse class="st10" cx="447" cy="203" rx="22" ry="13"/>
		<ellipse class="st10" cx="589" cy="282" rx="22" ry="13"/>
		<ellipse class="st10" cx="860" cy="246" rx="40" ry="23"/>
		<ellipse class="st10" cx="1076" cy="332" rx="40" ry="23"/>
	</g>
</g>
<g id="Carrot_Layer" class="st0">
	<path class="st14" d="M2014,385H28c-6.6,0-12-5.4-12-12V28c0-6.6,5.4-12,12-12h1986c6.6,0,12,5.4,12,12v345
		C2026,379.6,2020.6,385,2014,385z"/>
	<path class="st15" d="M1990,370H48c-6.6,0-12-5.4-12-12V48c0-6.6,5.4-12,12-12h1942c6.6,0,12,5.4,12,12v310
		C2002,364.6,1996.6,370,1990,370z"/>
	<g id="Layer_2_copy_6" class="st5">
		<ellipse class="st14" cx="142" cy="74" rx="22" ry="13"/>
		<ellipse class="st14" cx="284" cy="153" rx="22" ry="13"/>
		<ellipse class="st14" cx="555" cy="117" rx="40" ry="23"/>
		<ellipse class="st14" cx="771" cy="203" rx="40" ry="23"/>
		<ellipse class="st14" cx="1283" cy="193" rx="22" ry="13"/>
		<ellipse class="st14" cx="1425" cy="272" rx="22" ry="13"/>
		<ellipse class="st14" cx="1696" cy="236" rx="40" ry="23"/>
		<ellipse class="st14" cx="1912" cy="322" rx="40" ry="23"/>
		<ellipse class="st14" cx="883" cy="61" rx="22" ry="13"/>
		<ellipse class="st14" cx="1025" cy="140" rx="22" ry="13"/>
		<ellipse class="st14" cx="1296" cy="104" rx="40" ry="23"/>
		<ellipse class="st14" cx="1512" cy="190" rx="40" ry="23"/>
		
			<ellipse transform="matrix(0.91 -0.4147 0.4147 0.91 139.7182 788.4694)" class="st14" cx="1885.5" cy="72.5" rx="26.5" ry="14.5"/>
		
			<ellipse transform="matrix(0.91 -0.4147 0.4147 0.91 81.2733 681.3026)" class="st14" cx="1609.5" cy="153.5" rx="26.5" ry="14.5"/>
		
			<ellipse transform="matrix(0.91 -0.4147 0.4147 0.91 -4.2925 443.231)" class="st14" cx="1018.5" cy="231.5" rx="26.5" ry="14.5"/>
		<ellipse transform="matrix(0.91 -0.4147 0.4147 0.91 26.3738 308.4642)" class="st14" cx="723.5" cy="93.5" rx="26.5" ry="14.5"/>
		
			<ellipse transform="matrix(0.91 -0.4147 0.4147 0.91 -90.4812 172.2906)" class="st14" cx="351.5" cy="294.5" rx="26.5" ry="14.5"/>
		
			<ellipse transform="matrix(0.91 -0.4147 0.4147 0.91 -79.2617 79.9616)" class="st14" cx="144.5" cy="222.5" rx="26.5" ry="14.5"/>
		<ellipse class="st14" cx="447" cy="203" rx="22" ry="13"/>
		<ellipse class="st14" cx="589" cy="282" rx="22" ry="13"/>
		<ellipse class="st14" cx="860" cy="246" rx="40" ry="23"/>
		<ellipse class="st14" cx="1076" cy="332" rx="40" ry="23"/>
	</g>
</g>
<g id="Stawberry_Layer" class="st0">
	<g>
		<path class="st16" d="M28,384.5c-6.3,0-11.5-5.2-11.5-11.5V28c0-6.3,5.2-11.5,11.5-11.5h1986c6.3,0,11.5,5.2,11.5,11.5v345
			c0,6.3-5.2,11.5-11.5,11.5H28z"/>
		<path class="st2" d="M2014,17c6.1,0,11,4.9,11,11v345c0,6.1-4.9,11-11,11H28c-6.1,0-11-4.9-11-11V28c0-6.1,4.9-11,11-11H2014
			 M2014,16H28c-6.6,0-12,5.4-12,12v345c0,6.6,5.4,12,12,12h1986c6.6,0,12-5.4,12-12V28C2026,21.4,2020.6,16,2014,16L2014,16z"/>
	</g>
	<path class="st17" d="M1990,370H48c-6.6,0-12-5.4-12-12V48c0-6.6,5.4-12,12-12h1942c6.6,0,12,5.4,12,12v310
		C2002,364.6,1996.6,370,1990,370z"/>
	<g id="Layer_2_copy_2" class="st5">
		<ellipse class="st18" cx="142" cy="74" rx="22" ry="13"/>
		<ellipse class="st18" cx="284" cy="153" rx="22" ry="13"/>
		<ellipse class="st18" cx="555" cy="117" rx="40" ry="23"/>
		<ellipse class="st18" cx="771" cy="203" rx="40" ry="23"/>
		<ellipse class="st18" cx="1283" cy="193" rx="22" ry="13"/>
		<ellipse class="st18" cx="1425" cy="272" rx="22" ry="13"/>
		<ellipse class="st18" cx="1696" cy="236" rx="40" ry="23"/>
		<ellipse class="st18" cx="1912" cy="322" rx="40" ry="23"/>
		<ellipse class="st18" cx="883" cy="61" rx="22" ry="13"/>
		<ellipse class="st18" cx="1025" cy="140" rx="22" ry="13"/>
		<ellipse class="st18" cx="1296" cy="104" rx="40" ry="23"/>
		<ellipse class="st18" cx="1512" cy="190" rx="40" ry="23"/>
		
			<ellipse transform="matrix(0.91 -0.4147 0.4147 0.91 139.7182 788.4694)" class="st18" cx="1885.5" cy="72.5" rx="26.5" ry="14.5"/>
		
			<ellipse transform="matrix(0.91 -0.4147 0.4147 0.91 81.2733 681.3026)" class="st18" cx="1609.5" cy="153.5" rx="26.5" ry="14.5"/>
		
			<ellipse transform="matrix(0.91 -0.4147 0.4147 0.91 -4.2925 443.231)" class="st18" cx="1018.5" cy="231.5" rx="26.5" ry="14.5"/>
		<ellipse transform="matrix(0.91 -0.4147 0.4147 0.91 26.3738 308.4642)" class="st18" cx="723.5" cy="93.5" rx="26.5" ry="14.5"/>
		
			<ellipse transform="matrix(0.91 -0.4147 0.4147 0.91 -90.4812 172.2906)" class="st18" cx="351.5" cy="294.5" rx="26.5" ry="14.5"/>
		
			<ellipse transform="matrix(0.91 -0.4147 0.4147 0.91 -79.2617 79.9616)" class="st18" cx="144.5" cy="222.5" rx="26.5" ry="14.5"/>
		<ellipse class="st18" cx="447" cy="203" rx="22" ry="13"/>
		<ellipse class="st18" cx="589" cy="282" rx="22" ry="13"/>
		<ellipse class="st18" cx="860" cy="246" rx="40" ry="23"/>
		<ellipse class="st18" cx="1076" cy="332" rx="40" ry="23"/>
	</g>
</g>
<g id="Red_Velvet_Layer" class="st0">
	<g>
		<path class="st19" d="M28,384.5c-6.3,0-11.5-5.2-11.5-11.5V28c0-6.3,5.2-11.5,11.5-11.5h1986c6.3,0,11.5,5.2,11.5,11.5v345
			c0,6.3-5.2,11.5-11.5,11.5H28z"/>
		<path class="st2" d="M2014,17c6.1,0,11,4.9,11,11v345c0,6.1-4.9,11-11,11H28c-6.1,0-11-4.9-11-11V28c0-6.1,4.9-11,11-11H2014
			 M2014,16H28c-6.6,0-12,5.4-12,12v345c0,6.6,5.4,12,12,12h1986c6.6,0,12-5.4,12-12V28C2026,21.4,2020.6,16,2014,16L2014,16z"/>
	</g>
	<path class="st20" d="M1990,370H48c-6.6,0-12-5.4-12-12V48c0-6.6,5.4-12,12-12h1942c6.6,0,12,5.4,12,12v310
		C2002,364.6,1996.6,370,1990,370z"/>
	<g id="Layer_2_copy_3" class="st5">
		<ellipse class="st21" cx="142" cy="74" rx="22" ry="13"/>
		<ellipse class="st21" cx="284" cy="153" rx="22" ry="13"/>
		<ellipse class="st21" cx="555" cy="117" rx="40" ry="23"/>
		<ellipse class="st21" cx="771" cy="203" rx="40" ry="23"/>
		<ellipse class="st21" cx="1283" cy="193" rx="22" ry="13"/>
		<ellipse class="st21" cx="1425" cy="272" rx="22" ry="13"/>
		<ellipse class="st21" cx="1696" cy="236" rx="40" ry="23"/>
		<ellipse class="st21" cx="1912" cy="322" rx="40" ry="23"/>
		<ellipse class="st21" cx="883" cy="61" rx="22" ry="13"/>
		<ellipse class="st21" cx="1025" cy="140" rx="22" ry="13"/>
		<ellipse class="st21" cx="1296" cy="104" rx="40" ry="23"/>
		<ellipse class="st21" cx="1512" cy="190" rx="40" ry="23"/>
		
			<ellipse transform="matrix(0.91 -0.4147 0.4147 0.91 139.7182 788.4694)" class="st21" cx="1885.5" cy="72.5" rx="26.5" ry="14.5"/>
		
			<ellipse transform="matrix(0.91 -0.4147 0.4147 0.91 81.2733 681.3026)" class="st21" cx="1609.5" cy="153.5" rx="26.5" ry="14.5"/>
		
			<ellipse transform="matrix(0.91 -0.4147 0.4147 0.91 -4.2925 443.231)" class="st21" cx="1018.5" cy="231.5" rx="26.5" ry="14.5"/>
		<ellipse transform="matrix(0.91 -0.4147 0.4147 0.91 26.3738 308.4642)" class="st21" cx="723.5" cy="93.5" rx="26.5" ry="14.5"/>
		
			<ellipse transform="matrix(0.91 -0.4147 0.4147 0.91 -90.4812 172.2906)" class="st21" cx="351.5" cy="294.5" rx="26.5" ry="14.5"/>
		
			<ellipse transform="matrix(0.91 -0.4147 0.4147 0.91 -79.2617 79.9616)" class="st21" cx="144.5" cy="222.5" rx="26.5" ry="14.5"/>
		<ellipse class="st21" cx="447" cy="203" rx="22" ry="13"/>
		<ellipse class="st21" cx="589" cy="282" rx="22" ry="13"/>
		<ellipse class="st21" cx="860" cy="246" rx="40" ry="23"/>
		<ellipse class="st21" cx="1076" cy="332" rx="40" ry="23"/>
	</g>
</g>
<g id="Choco_Layer" class="st0">
	<g>
		<path class="st22" d="M28,384.5c-6.3,0-11.5-5.2-11.5-11.5V28c0-6.3,5.2-11.5,11.5-11.5h1986c6.3,0,11.5,5.2,11.5,11.5v345
			c0,6.3-5.2,11.5-11.5,11.5H28z"/>
		<path class="st2" d="M2014,17c6.1,0,11,4.9,11,11v345c0,6.1-4.9,11-11,11H28c-6.1,0-11-4.9-11-11V28c0-6.1,4.9-11,11-11H2014
			 M2014,16H28c-6.6,0-12,5.4-12,12v345c0,6.6,5.4,12,12,12h1986c6.6,0,12-5.4,12-12V28C2026,21.4,2020.6,16,2014,16L2014,16z"/>
	</g>
	<path class="st23" d="M1990,370H48c-6.6,0-12-5.4-12-12V48c0-6.6,5.4-12,12-12h1942c6.6,0,12,5.4,12,12v310
		C2002,364.6,1996.6,370,1990,370z"/>
	<g id="Layer_2_copy" class="st5">
		<ellipse class="st24" cx="142" cy="74" rx="22" ry="13"/>
		<ellipse class="st24" cx="284" cy="153" rx="22" ry="13"/>
		<ellipse class="st24" cx="555" cy="117" rx="40" ry="23"/>
		<ellipse class="st24" cx="771" cy="203" rx="40" ry="23"/>
		<ellipse class="st24" cx="1283" cy="193" rx="22" ry="13"/>
		<ellipse class="st24" cx="1425" cy="272" rx="22" ry="13"/>
		<ellipse class="st24" cx="1696" cy="236" rx="40" ry="23"/>
		<ellipse class="st24" cx="1912" cy="322" rx="40" ry="23"/>
		<ellipse class="st24" cx="883" cy="61" rx="22" ry="13"/>
		<ellipse class="st24" cx="1025" cy="140" rx="22" ry="13"/>
		<ellipse class="st24" cx="1296" cy="104" rx="40" ry="23"/>
		<ellipse class="st24" cx="1512" cy="190" rx="40" ry="23"/>
		
			<ellipse transform="matrix(0.91 -0.4147 0.4147 0.91 139.7182 788.4694)" class="st24" cx="1885.5" cy="72.5" rx="26.5" ry="14.5"/>
		
			<ellipse transform="matrix(0.91 -0.4147 0.4147 0.91 81.2733 681.3026)" class="st24" cx="1609.5" cy="153.5" rx="26.5" ry="14.5"/>
		
			<ellipse transform="matrix(0.91 -0.4147 0.4147 0.91 -4.2925 443.231)" class="st24" cx="1018.5" cy="231.5" rx="26.5" ry="14.5"/>
		<ellipse transform="matrix(0.91 -0.4147 0.4147 0.91 26.3738 308.4642)" class="st24" cx="723.5" cy="93.5" rx="26.5" ry="14.5"/>
		
			<ellipse transform="matrix(0.91 -0.4147 0.4147 0.91 -90.4812 172.2906)" class="st24" cx="351.5" cy="294.5" rx="26.5" ry="14.5"/>
		
			<ellipse transform="matrix(0.91 -0.4147 0.4147 0.91 -79.2617 79.9616)" class="st24" cx="144.5" cy="222.5" rx="26.5" ry="14.5"/>
		<ellipse class="st24" cx="447" cy="203" rx="22" ry="13"/>
		<ellipse class="st24" cx="589" cy="282" rx="22" ry="13"/>
		<ellipse class="st24" cx="860" cy="246" rx="40" ry="23"/>
		<ellipse class="st24" cx="1076" cy="332" rx="40" ry="23"/>
	</g>
</g>
</svg>
