<?xml version="1.0" encoding="utf-8"?>
<!-- Generator: Adobe Illustrator 22.0.1, SVG Export Plug-In . SVG Version: 6.00 Build 0)  -->
<svg version="1.1" xmlns="http://www.w3.org/2000/svg" xmlns:xlink="http://www.w3.org/1999/xlink" x="0px" y="0px"
	 viewBox="0 0 2048 400" style="enable-background:new 0 0 2048 400;" xml:space="preserve">
<style type="text/css">
	.st0{display:none;}
	.st1{display:inline;fill:#F98AF1;stroke:#000000;stroke-miterlimit:10;}
	.st2{display:inline;fill:#FAAEFC;stroke:#000000;stroke-miterlimit:10;}
	.st3{display:inline;fill:#07514C;stroke:#000000;stroke-miterlimit:10;}
	.st4{display:inline;fill:#07937B;stroke:#000000;stroke-miterlimit:10;}
	.st5{display:inline;fill:#F4F4F4;stroke:#000000;stroke-miterlimit:10;}
	.st6{display:inline;fill:#F9F9EF;stroke:#000000;stroke-miterlimit:10;}
	.st7{display:inline;}
	.st8{fill:#FFF4C5;stroke:#000000;stroke-miterlimit:10;}
	.st9{fill:#FCF7DB;stroke:#000000;stroke-miterlimit:10;}
	.st10{fill:#4F2509;}
	.st11{fill:#5B361A;}
	.st12{fill:#A54808;}
	.st13{fill:#A55B29;}
</style>
<g id="Pink_Topping" class="st0">
	<path class="st1" d="M2027,324.7c0,0,0,37-74.9-21.2c-75-58.2-272.9-79.3-438.9-26.4c-165.9,52.9-449.5,79.3-535.1,5.3
		c-85.6-74-305-31.7-561.9,15.9c-256.9,47.6-396-111.1-396-111.1s-37.5-63.4,203.4-58.2c240.8,5.3,1712.5-21.2,1723.1,15.9
		C1957.4,181.9,2021.7,139.5,2027,324.7z"/>
	<path class="st2" d="M2027,285.6c0,0,0,36.6-74-20.9c-74.1-57.5-269.7-78.4-433.7-26.1c-163.9,52.3-444.2,78.4-528.8,5.2
		c-84.6-73.2-301.5-31.4-555.3,15.7C181.2,306.5,43.7,149.7,43.7,149.7s-37-62.7,201-57.5c238,5.2,1692.4-20.9,1703,15.7
		C1958.2,144.5,2021.7,102.7,2027,285.6z"/>
</g>
<g id="Blue_Topping_copy" class="st0">
	<path class="st3" d="M2027,324.7c0,0,0,37-74.9-21.2c-75-58.2-272.9-79.3-438.9-26.4c-165.9,52.9-449.5,79.3-535.1,5.3
		c-85.6-74-305-31.7-561.9,15.9c-256.9,47.6-396-111.1-396-111.1s-37.5-63.4,203.4-58.2c240.8,5.3,1712.5-21.2,1723.1,15.9
		C1957.4,181.9,2021.7,139.5,2027,324.7z"/>
	<path class="st4" d="M2027,285.6c0,0,0,36.6-74-20.9c-74.1-57.5-269.7-78.4-433.7-26.1c-163.9,52.3-444.2,78.4-528.8,5.2
		c-84.6-73.2-301.5-31.4-555.3,15.7C181.2,306.5,43.7,149.7,43.7,149.7s-37-62.7,201-57.5c238,5.2,1692.4-20.9,1703,15.7
		C1958.2,144.5,2021.7,102.7,2027,285.6z"/>
</g>
<g id="Fondant_Topping_copy" class="st0">
	<path class="st5" d="M2027,324.7c0,0,0,37-74.9-21.2c-75-58.2-272.9-79.3-438.9-26.4c-165.9,52.9-449.5,79.3-535.1,5.3
		c-85.6-74-305-31.7-561.9,15.9c-256.9,47.6-396-111.1-396-111.1s-37.5-63.4,203.4-58.2c240.8,5.3,1712.5-21.2,1723.1,15.9
		C1957.4,181.9,2021.7,139.5,2027,324.7z"/>
	<path class="st6" d="M2027,285.6c0,0,0,36.6-74-20.9c-74.1-57.5-269.7-78.4-433.7-26.1c-163.9,52.3-444.2,78.4-528.8,5.2
		c-84.6-73.2-301.5-31.4-555.3,15.7C181.2,306.5,43.7,149.7,43.7,149.7s-37-62.7,201-57.5c238,5.2,1692.4-20.9,1703,15.7
		C1958.2,144.5,2021.7,102.7,2027,285.6z"/>
</g>
<g id="Vanilla_Topping" class="st0">
	<g class="st7">
		<path class="st8" d="M2027,324.7c0,0,0,37-74.9-21.2c-75-58.2-272.9-79.3-438.9-26.4c-165.9,52.9-449.5,79.3-535.1,5.3
			c-85.6-74-305-31.7-561.9,15.9c-256.9,47.6-396-111.1-396-111.1s-37.5-63.4,203.4-58.2c240.8,5.3,1712.5-21.2,1723.1,15.9
			C1957.4,181.9,2021.7,139.5,2027,324.7z"/>
	</g>
	<g class="st7">
		<path class="st9" d="M2027,285.6c0,0,0,36.6-74-20.9c-74.1-57.5-269.7-78.4-433.7-26.1c-163.9,52.3-444.2,78.4-528.8,5.2
			c-84.6-73.2-301.5-31.4-555.3,15.7C181.2,306.5,43.7,149.7,43.7,149.7s-37-62.7,201-57.5c238,5.2,1692.4-20.9,1703,15.7
			C1958.2,144.5,2021.7,102.7,2027,285.6z"/>
	</g>
</g>
<g id="Chocolate_Toppings" class="st0">
	<g class="st7">
		<path class="st10" d="M2027,324.7c0,0,0,37-74.9-21.2c-75-58.2-272.9-79.3-438.9-26.4c-165.9,52.9-449.5,79.3-535.1,5.3
			c-85.6-74-305-31.7-561.9,15.9c-256.9,47.6-396-111.1-396-111.1s-37.5-63.4,203.4-58.2c240.8,5.3,1712.5-21.2,1723.1,15.9
			C1957.4,181.9,2021.7,139.5,2027,324.7z"/>
	</g>
	<g class="st7">
		<path class="st11" d="M2027,285.6c0,0,0,36.6-74-20.9c-74.1-57.5-269.7-78.4-433.7-26.1c-163.9,52.3-444.2,78.4-528.8,5.2
			c-84.6-73.2-301.5-31.4-555.3,15.7C181.2,306.5,43.7,149.7,43.7,149.7s-37-62.7,201-57.5c238,5.2,1692.4-20.9,1703,15.7
			C1958.2,144.5,2021.7,102.7,2027,285.6z"/>
	</g>
</g>
<g id="Brown_Fondant">
	<g>
		<path class="st12" d="M2027,324.7c0,0,0,37-74.9-21.2c-75-58.2-272.9-79.3-438.9-26.4c-165.9,52.9-449.5,79.3-535.1,5.3
			c-85.6-74-305-31.7-561.9,15.9c-256.9,47.6-396-111.1-396-111.1s-37.5-63.4,203.4-58.2c240.8,5.3,1712.5-21.2,1723.1,15.9
			C1957.4,181.9,2021.7,139.5,2027,324.7z"/>
	</g>
	<g>
		<path class="st13" d="M2027,285.6c0,0,0,36.6-74-20.9c-74.1-57.5-269.7-78.4-433.7-26.1c-163.9,52.3-444.2,78.4-528.8,5.2
			c-84.6-73.2-301.5-31.4-555.3,15.7C181.2,306.5,43.7,149.7,43.7,149.7s-37-62.7,201-57.5c238,5.2,1692.4-20.9,1703,15.7
			C1958.2,144.5,2021.7,102.7,2027,285.6z"/>
	</g>
</g>
</svg>
